<svg width="88" height="94" viewBox="0 0 88 94" fill="none" xmlns="http://www.w3.org/2000/svg">
<path d="M52.2845 49.4285C48.5332 48.1283 43.8334 43.7695 43.8334 43.7695C43.8334 43.7695 39.1442 48.139 35.3823 49.4285C32.0359 50.5795 26.377 50.3557 26.377 50.3557L27.496 62.9844L43.8334 78.6718L60.1708 62.9844L61.2898 50.3557C61.2898 50.3557 55.6309 50.5795 52.2845 49.4285Z" fill="black" style="fill:black;fill-opacity:1;"/>
<path d="M66.0105 11.5097L43.8223 0L21.634 11.5097L0 56.9519L43.8223 93.7831L87.6445 56.9519L66.0105 11.5097ZM8.82413 58.1668L43.8223 29.2326L78.8204 58.1668L43.8223 87.2822L8.82413 58.1668Z" fill="black" style="fill:black;fill-opacity:1;"/>
</svg>
